<svg width="131" height="158" viewBox="0 0 131 158" fill="none" xmlns="http://www.w3.org/2000/svg">
<g clip-path="url(#clip0_2414_2760)">
<circle cx="95.8085" cy="95.8085" r="95.8085" fill="#9FE2CE"/>
<g clip-path="url(#clip1_2414_2760)">
<path d="M80.4441 68.4604H55.2132C54.6383 68.4611 54.087 68.6898 53.6805 69.0964C53.2739 69.5029 53.0452 70.0541 53.0445 70.6291V126.705L52.7553 126.793L46.5658 128.689C46.2725 128.778 45.9556 128.748 45.6848 128.604C45.414 128.46 45.2114 128.214 45.1215 127.921L26.7104 67.7823C26.6208 67.489 26.6514 67.172 26.7953 66.9012C26.9393 66.6304 27.1849 66.4278 27.4781 66.3379L37.0162 63.4174L64.6674 54.9536L74.2054 52.033C74.3506 51.9884 74.5031 51.9728 74.6543 51.9871C74.8055 52.0014 74.9524 52.0455 75.0866 52.1166C75.2207 52.1878 75.3395 52.2847 75.4362 52.4019C75.5328 52.519 75.6054 52.6541 75.6498 52.7993L80.3559 68.1712L80.4441 68.4604Z" fill="white"/>
<path d="M85.9502 68.1711L80.2782 49.6445C80.1839 49.3358 80.0296 49.0487 79.8242 48.7997C79.6189 48.5506 79.3665 48.3445 79.0814 48.193C78.7964 48.0416 78.4843 47.9478 78.1629 47.917C77.8416 47.8862 77.5174 47.919 77.2088 48.0136L63.7988 52.1182L36.1491 60.5835L22.7392 64.6896C22.1162 64.8809 21.5946 65.3115 21.2888 65.887C20.983 66.4625 20.9181 67.1358 21.1082 67.7591L40.4937 131.076C40.6482 131.579 40.9598 132.019 41.3829 132.332C41.8061 132.645 42.3183 132.814 42.8447 132.815C43.0883 132.815 43.3305 132.779 43.5632 132.707L52.7557 129.893L53.0449 129.803V129.501L52.7557 129.589L43.4779 132.43C42.928 132.598 42.3341 132.541 41.8265 132.271C41.3188 132.001 40.9388 131.541 40.7699 130.992L21.3859 67.6738C21.3022 67.4015 21.273 67.1154 21.3 66.8319C21.3271 66.5483 21.4098 66.2729 21.5434 66.0213C21.677 65.7698 21.8589 65.5471 22.0788 65.3659C22.2986 65.1848 22.552 65.0488 22.8244 64.9658L36.2344 60.8596L63.8842 52.3958L77.2941 48.2897C77.5008 48.2267 77.7156 48.1945 77.9317 48.1943C78.3954 48.1953 78.8465 48.3448 79.2191 48.6209C79.5917 48.8969 79.8661 49.285 80.0021 49.7283L85.648 68.1711L85.7377 68.4603H86.0384L85.9502 68.1711Z" fill="#050A35"/>
<path d="M38.7374 66.3855C38.4587 66.3853 38.1875 66.2958 37.9634 66.1301C37.7393 65.9644 37.5742 65.7313 37.4924 65.4649L35.6301 59.3821C35.5801 59.2188 35.5627 59.0471 35.579 58.877C35.5953 58.7069 35.645 58.5417 35.7251 58.3907C35.8053 58.2398 35.9144 58.1062 36.0462 57.9975C36.1781 57.8887 36.33 57.807 36.4934 57.757L61.931 49.9693C62.2609 49.8686 62.6174 49.903 62.9221 50.0648C63.2268 50.2266 63.4548 50.5028 63.5562 50.8326L65.4184 56.9154C65.5191 57.2454 65.4847 57.6019 65.3228 57.9065C65.161 58.2112 64.8849 58.4393 64.5552 58.5406L39.1176 66.3283C38.9944 66.3661 38.8663 66.3854 38.7374 66.3855Z" fill="#5A828F"/>
<path d="M48.4927 54.4044C50.0897 54.4044 51.3843 53.1097 51.3843 51.5127C51.3843 49.9157 50.0897 48.6211 48.4927 48.6211C46.8957 48.6211 45.601 49.9157 45.601 51.5127C45.601 53.1097 46.8957 54.4044 48.4927 54.4044Z" fill="#5A828F"/>
<path d="M48.4927 53.3428C49.504 53.3428 50.3238 52.523 50.3238 51.5117C50.3238 50.5005 49.504 49.6807 48.4927 49.6807C47.4814 49.6807 46.6616 50.5005 46.6616 51.5117C46.6616 52.523 47.4814 53.3428 48.4927 53.3428Z" fill="white"/>
<path d="M108.13 132.076H59.2615C58.9357 132.076 58.6233 131.946 58.393 131.716C58.1626 131.486 58.033 131.173 58.0326 130.847V72.2919C58.033 71.9661 58.1626 71.6537 58.3929 71.4233C58.6233 71.1929 58.9357 71.0634 59.2615 71.063H108.13C108.456 71.0634 108.768 71.193 108.999 71.4234C109.229 71.6537 109.359 71.9661 109.359 72.2919V130.847C109.359 131.173 109.229 131.486 108.999 131.716C108.768 131.946 108.456 132.076 108.13 132.076Z" fill="white"/>
<path d="M85.6476 68.1709H55.2132C54.5616 68.1718 53.937 68.4311 53.4763 68.8918C53.0155 69.3526 52.7563 69.9772 52.7553 70.6288V129.589L53.0445 129.501V70.6288C53.0452 70.0538 53.2739 69.5026 53.6805 69.096C54.087 68.6895 54.6383 68.4608 55.2132 68.4601H85.7373L85.6476 68.1709ZM112.178 68.1709H55.2132C54.5616 68.1718 53.937 68.4311 53.4763 68.8918C53.0155 69.3526 52.7563 69.9772 52.7553 70.6288V136.847C52.7563 137.499 53.0155 138.123 53.4763 138.584C53.937 139.045 54.5616 139.304 55.2132 139.305H112.178C112.83 139.304 113.455 139.045 113.915 138.584C114.376 138.123 114.635 137.499 114.636 136.847V70.6288C114.635 69.9772 114.376 69.3526 113.915 68.8918C113.455 68.4311 112.83 68.1718 112.178 68.1709ZM114.347 136.847C114.346 137.422 114.118 137.973 113.711 138.38C113.305 138.786 112.753 139.015 112.178 139.016H55.2132C54.6383 139.015 54.087 138.786 53.6805 138.38C53.2739 137.973 53.0452 137.422 53.0445 136.847V70.6288C53.0452 70.0538 53.2739 69.5026 53.6805 69.096C54.087 68.6895 54.6383 68.4608 55.2132 68.4601H112.178C112.753 68.4608 113.305 68.6895 113.711 69.096C114.118 69.5026 114.346 70.0538 114.347 70.6288V136.847Z" fill="#050A35"/>
<path d="M96.9973 74.5334H70.3943C70.0493 74.533 69.7186 74.3958 69.4746 74.1518C69.2307 73.9079 69.0935 73.5771 69.0931 73.2322V66.8706C69.0935 66.5256 69.2307 66.1948 69.4746 65.9509C69.7186 65.7069 70.0493 65.5697 70.3943 65.5693H96.9973C97.3423 65.5697 97.673 65.7069 97.917 65.9509C98.1609 66.1948 98.2982 66.5256 98.2985 66.8706V73.2322C98.2982 73.5771 98.1609 73.9079 97.917 74.1518C97.6731 74.3958 97.3423 74.533 96.9973 74.5334Z" fill="#5A828F"/>
<path d="M83.6958 66.0025C85.2928 66.0025 86.5874 64.7079 86.5874 63.1109C86.5874 61.5139 85.2928 60.2192 83.6958 60.2192C82.0988 60.2192 80.8041 61.5139 80.8041 63.1109C80.8041 64.7079 82.0988 66.0025 83.6958 66.0025Z" fill="#5A828F"/>
<path d="M83.6958 64.8722C84.6685 64.8722 85.4571 64.0836 85.4571 63.1109C85.4571 62.1382 84.6685 61.3496 83.6958 61.3496C82.7231 61.3496 81.9345 62.1382 81.9345 63.1109C81.9345 64.0836 82.7231 64.8722 83.6958 64.8722Z" fill="white"/>
</g>
<path d="M79.8244 98.7411C79.8366 97.1585 81.2322 95.8824 82.9366 95.8955L84.4817 95.9074C86.1861 95.9205 87.5619 97.2179 87.5497 98.8006L87.5485 98.962C87.5409 99.9394 86.998 100.845 86.1104 101.363L84.0635 102.562C82.8411 103.279 82.0976 104.525 82.0873 105.865L82.0868 105.932C82.0807 106.726 82.7662 107.372 83.6208 107.379C84.4754 107.386 85.1708 106.75 85.1769 105.956L85.1774 105.893C85.1802 105.526 85.3856 105.187 85.7155 104.992L87.7624 103.793C89.5377 102.748 90.6235 100.941 90.6386 98.9858L90.6398 98.8244C90.6642 95.6546 87.9174 93.0643 84.5038 93.038L82.9587 93.0261C79.5451 92.9998 76.7587 95.5475 76.7343 98.7173C76.7282 99.5109 77.4137 100.157 78.2683 100.164C79.1229 100.17 79.8183 99.5347 79.8244 98.7411ZM83.5766 113.118C84.0888 113.122 84.5815 112.937 84.9463 112.603C85.3111 112.27 85.5181 111.815 85.5217 111.339C85.5254 110.864 85.3254 110.406 84.9658 110.067C84.6062 109.728 84.1164 109.535 83.6042 109.531C83.092 109.527 82.5993 109.712 82.2345 110.046C81.8697 110.379 81.6627 110.834 81.6591 111.31C81.6554 111.785 81.8554 112.243 82.215 112.582C82.5746 112.921 83.0644 113.114 83.5766 113.118Z" fill="#5A828F"/>
</g>
<defs>
<clipPath id="clip0_2414_2760">
<rect width="131" height="158" fill="white"/>
</clipPath>
<clipPath id="clip1_2414_2760">
<rect width="93.6362" height="91.4007" fill="white" transform="translate(21 47.9048)"/>
</clipPath>
</defs>
</svg>
