<svg width="113" height="68" viewBox="0 0 113 68" fill="none" xmlns="http://www.w3.org/2000/svg">
<path opacity="0.7" d="M45.1112 34.791H96.1064V38.0424V67.8055H45.1112V34.791Z" fill="#7275EC"/>
<path d="M32.8525 10.5158L38.7366 0.805664H72.4274L76.5441 5.12161V67.8057H27.1432V19.3026L32.8525 10.5158Z" fill="#181B9B"/>
<path d="M111 32.6615H71.9775L38.9744 0.805664L27.1431 19.3341V32.6615H18.6329L27.1431 19.3341L38.9744 0.805664H77.5818L111 32.6615Z" fill="#5F62D9"/>
<path d="M38.9744 0.805664L71.9775 32.6615H111L77.5818 0.805664H38.9744ZM38.9744 0.805664L27.1431 19.3341M27.1431 19.3341L18.6329 32.6615H27.1431V19.3341Z" stroke="#5F62D9" stroke-width="1.26994"/>
<line x1="66.6667" y1="67.8057" x2="66.6667" y2="25.081" stroke="#5F62D9" stroke-width="2"/>
<line x1="5.86481" y1="67.8057" x2="5.86481" y2="25.081" stroke="#5F62D9" stroke-width="2"/>
<ellipse cx="41.0503" cy="24.4406" rx="6.01943" ry="5.96012" fill="white"/>
<path d="M34.6157 40.3148C34.6157 39.3797 35.3738 38.6216 36.309 38.6216H46.2067C47.1419 38.6216 47.9 39.3797 47.9 40.3148V67.8056H34.6157V40.3148Z" fill="white"/>
<rect y="22.168" width="11.7681" height="2.91304" fill="#5F62D9"/>
<rect x="0.980743" y="19.2549" width="9.80677" height="2.91304" fill="#5F62D9"/>
</svg>
