<svg width="207" height="175" viewBox="0 0 207 175" fill="none" xmlns="http://www.w3.org/2000/svg">
<path opacity="0.7" d="M83.3331 113.406H177.536V119.472V175H83.3331V113.406Z" fill="#7275EC"/>
<path d="M60.6882 68.1159L71.5577 50H133.794L141.399 58.0521V175H50.1415V84.5092L60.6882 68.1159Z" fill="#181B9B"/>
<path d="M205.049 109.433H132.963L71.9967 50L50.1409 84.5679V109.433H34.42L50.1409 84.5679L71.9967 50H143.316L205.049 109.433Z" fill="#5F62D9"/>
<path d="M71.9967 50L132.963 109.433H205.049L143.316 50H71.9967ZM71.9967 50L50.1409 84.5679M50.1409 84.5679L34.42 109.433H50.1409V84.5679Z" stroke="#5F62D9" stroke-width="1.26994"/>
<line x1="124" y1="175" x2="124" y2="95.2899" stroke="#5F62D9" stroke-width="2"/>
<line x1="11.6809" y1="175" x2="11.6809" y2="95.2899" stroke="#5F62D9" stroke-width="2"/>
<circle cx="75.8317" cy="94.0952" r="11.1196" fill="white"/>
<path d="M63.9451 122.245C63.9451 121.31 64.7032 120.552 65.6384 120.552H86.7918C87.7269 120.552 88.485 121.31 88.485 122.245V175H63.9451V122.245Z" fill="white"/>
<rect x="-0.000244141" y="89.855" width="21.7391" height="5.43478" fill="#5F62D9"/>
<rect x="1.8114" y="84.4204" width="18.1159" height="5.43478" fill="#5F62D9"/>
<path d="M133.375 41.1429C133.375 29.7964 142.543 20.5714 153.82 20.5714H164.042C175.318 20.5714 184.486 29.7964 184.486 41.1429V42.3C184.486 49.3071 180.941 55.8321 175.095 59.5929L161.614 68.3036C153.564 73.5107 148.709 82.4786 148.709 92.0893V92.5714C148.709 98.2607 153.277 102.857 158.931 102.857C164.585 102.857 169.153 98.2607 169.153 92.5714V92.1214C169.153 89.4857 170.495 87.0429 172.667 85.6286L186.148 76.9179C197.839 69.3321 204.931 56.3143 204.931 42.3V41.1429C204.931 18.4179 186.627 0 164.042 0H153.82C131.235 0 112.931 18.4179 112.931 41.1429C112.931 46.8321 117.499 51.4286 123.153 51.4286C128.807 51.4286 133.375 46.8321 133.375 41.1429ZM158.931 144C162.32 144 165.57 142.645 167.966 140.234C170.362 137.823 171.709 134.553 171.709 131.143C171.709 127.733 170.362 124.463 167.966 122.051C165.57 119.64 162.32 118.286 158.931 118.286C155.542 118.286 152.292 119.64 149.896 122.051C147.499 124.463 146.153 127.733 146.153 131.143C146.153 134.553 147.499 137.823 149.896 140.234C152.292 142.645 155.542 144 158.931 144Z" fill="#181B9B"/>
</svg>
