<svg width="263" height="214" viewBox="0 0 263 214" fill="none" xmlns="http://www.w3.org/2000/svg">
<circle cx="175" cy="88.3628" r="88" fill="#CFF1E7"/>
<path opacity="0.7" d="M99.3333 151.406H193.536V157.472V213H99.3333V151.406Z" fill="#7275EC"/>
<path d="M76.6884 106.116L87.558 88H149.795L157.399 96.0521V213H66.1417V122.509L76.6884 106.116Z" fill="#181B9B"/>
<path d="M221.049 147.433H148.963L87.997 88L66.1411 122.568V147.433H50.4203L66.1411 122.568L87.997 88H159.316L221.049 147.433Z" fill="#5F62D9"/>
<path d="M87.997 88L148.963 147.433H221.049L159.316 88H87.997ZM87.997 88L66.1411 122.568M66.1411 122.568L50.4203 147.433H66.1411V122.568Z" stroke="#5F62D9" stroke-width="1.26994"/>
<line x1="140" y1="213" x2="140" y2="133.29" stroke="#5F62D9" stroke-width="2"/>
<line x1="27.6812" y1="213" x2="27.6811" y2="133.29" stroke="#5F62D9" stroke-width="2"/>
<circle cx="91.8319" cy="132.095" r="11.1196" fill="white"/>
<path d="M79.9454 160.245C79.9454 159.31 80.7035 158.552 81.6386 158.552H102.792C103.727 158.552 104.485 159.31 104.485 160.245V213H79.9454V160.245Z" fill="white"/>
<rect x="16" y="127.855" width="21.7391" height="5.43478" fill="#5F62D9"/>
<rect x="17.8116" y="122.42" width="18.1159" height="5.43478" fill="#5F62D9"/>
<path d="M149.376 79.1429C149.376 67.7964 158.544 58.5714 169.82 58.5714H180.042C191.319 58.5714 200.487 67.7964 200.487 79.1429V80.3C200.487 87.3071 196.941 93.8321 191.095 97.5929L177.614 106.304C169.564 111.511 164.709 120.479 164.709 130.089V130.571C164.709 136.261 169.277 140.857 174.931 140.857C180.585 140.857 185.153 136.261 185.153 130.571V130.121C185.153 127.486 186.495 125.043 188.667 123.629L202.148 114.918C213.839 107.332 220.931 94.3143 220.931 80.3V79.1429C220.931 56.4179 202.627 38 180.042 38H169.82C147.235 38 128.931 56.4179 128.931 79.1429C128.931 84.8321 133.499 89.4286 139.153 89.4286C144.808 89.4286 149.376 84.8321 149.376 79.1429ZM174.931 182C178.32 182 181.57 180.645 183.966 178.234C186.363 175.823 187.709 172.553 187.709 169.143C187.709 165.733 186.363 162.463 183.966 160.051C181.57 157.64 178.32 156.286 174.931 156.286C171.542 156.286 168.292 157.64 165.896 160.051C163.5 162.463 162.153 165.733 162.153 169.143C162.153 172.553 163.5 175.823 165.896 178.234C168.292 180.645 171.542 182 174.931 182Z" fill="#181B9B"/>
<line y1="212.863" x2="238" y2="212.863" stroke="#181B9B"/>
</svg>
