<svg width="268" height="107" viewBox="0 0 268 107" fill="none" xmlns="http://www.w3.org/2000/svg">
<g opacity="0.5">
<path opacity="0.7" d="M177.251 62.0239H245.738V66.4275V106.737H177.251V62.0239Z" fill="#7275EC"/>
<path d="M160.788 29.1469L168.69 15.9961H213.937L219.466 21.8414V106.737H153.12V41.0472L160.788 29.1469Z" fill="#181B9B"/>
<path d="M265.741 59.1397H213.333L169.01 15.9961L153.12 41.0898V59.1397H141.691L153.12 41.0898L169.01 15.9961H220.86L265.741 59.1397Z" fill="#5F62D9"/>
<path d="M169.01 15.9961L213.333 59.1397H265.741L220.86 15.9961H169.01ZM169.01 15.9961L153.12 41.0898M153.12 41.0898L141.691 59.1397H153.12V41.0898Z" stroke="#5F62D9" stroke-width="1.64622"/>
<line x1="206.247" y1="106.737" x2="206.247" y2="48.8732" stroke="#5F62D9" stroke-width="2.59259"/>
<ellipse cx="171.798" cy="48.0056" rx="8.08415" ry="8.07203" fill="white"/>
<path d="M163.156 69.4069C163.156 68.1946 164.139 67.2119 165.351 67.2119H178.802C180.014 67.2119 180.997 68.1946 180.997 69.4069V106.737H163.156V69.4069Z" fill="white"/>
<rect x="116.667" y="44.9277" width="15.8047" height="3.94525" fill="#5F62D9"/>
<rect x="117.984" y="40.9824" width="13.1706" height="3.94525" fill="#5F62D9"/>
</g>
<path opacity="0.7" d="M70.0676 54.9565H149.274V60.0521V106.696H70.0676V54.9565Z" fill="#7275EC"/>
<path d="M51.0272 16.9127L60.1664 1.69531H112.496L118.89 8.45912V106.695H42.1594V30.683L51.0272 16.9127Z" fill="#181B9B"/>
<path d="M172.407 51.6186H111.797L60.5358 1.69531L42.1592 30.7323V51.6186H28.941L42.1592 30.7323L60.5358 1.69531H120.502L172.407 51.6186Z" fill="#5F62D9"/>
<path d="M60.5358 1.69531L111.797 51.6186H172.407L120.502 1.69531H60.5358ZM60.5358 1.69531L42.1592 30.7323M42.1592 30.7323L28.941 51.6186H42.1592V30.7323Z" stroke="#5F62D9" stroke-width="1.64622"/>
<line x1="103.805" y1="106.695" x2="103.805" y2="39.7388" stroke="#5F62D9" stroke-width="2.59259"/>
<line x1="9.36624" y1="106.695" x2="9.36623" y2="39.7388" stroke="#5F62D9" stroke-width="2.59259"/>
<ellipse cx="63.76" cy="38.735" rx="9.3495" ry="9.34049" fill="white"/>
<path d="M53.7658 63.1544C53.7658 61.9422 54.7485 60.9595 55.9608 60.9595H72.2042C73.4165 60.9595 74.3992 61.9422 74.3992 63.1544V106.696H53.7658V63.1544Z" fill="white"/>
<rect y="35.1733" width="18.2785" height="4.56522" fill="#5F62D9"/>
<rect x="1.5233" y="30.6084" width="15.2321" height="4.56522" fill="#5F62D9"/>
</svg>
