<svg width="230" height="82" viewBox="0 0 230 82" fill="none" xmlns="http://www.w3.org/2000/svg">
<path opacity="0.7" d="M149.737 47.3042H202.57V50.7012V81.797H149.737V47.3042Z" fill="#7275EC"/>
<path d="M137.037 21.9418L143.133 11.7969H178.038L182.303 16.3061V81.7969H131.122V31.122L137.037 21.9418Z" fill="#181B9B"/>
<path d="M218 45.0791H177.572L143.379 11.7969L131.122 31.1549V45.0791H122.305L131.122 31.1549L143.379 11.7969H183.378L218 45.0791Z" fill="#5F62D9"/>
<path d="M143.379 11.7969L177.572 45.0791H218L183.378 11.7969H143.379ZM143.379 11.7969L131.122 31.1549M131.122 31.1549L122.305 45.0791H131.122V31.1549Z" stroke="#5F62D9" stroke-width="1.26994"/>
<line x1="172.105" y1="81.7969" x2="172.105" y2="37.1592" stroke="#5F62D9" stroke-width="2"/>
<ellipse cx="145.53" cy="36.4902" rx="6.23635" ry="6.22699" fill="white"/>
<path d="M138.863 52.9994C138.863 52.0642 139.621 51.3062 140.557 51.3062H150.933C151.868 51.3062 152.626 52.0642 152.626 52.9994V81.7969H138.863V52.9994Z" fill="white"/>
<rect x="103" y="34.1157" width="12.1922" height="3.04348" fill="#5F62D9"/>
<rect x="104.016" y="31.0723" width="10.1602" height="3.04348" fill="#5F62D9"/>
<line x1="91.7807" y1="81.5" x2="229.781" y2="81.5" stroke="#181B9B"/>
<path opacity="0.7" d="M67.0524 41.8521H128.155V45.7829V81.7651H67.0524V41.8521Z" fill="#7275EC"/>
<path d="M52.3641 12.5043L59.4143 0.765137H99.7826L104.715 5.98293V81.7651H45.5232V23.1271L52.3641 12.5043Z" fill="#181B9B"/>
<path d="M146 39.2774H99.2436L59.6993 0.765137L45.5231 23.1651V39.2774H35.3261L45.5231 23.1651L59.6993 0.765137H105.959L146 39.2774Z" fill="#5F62D9"/>
<path d="M59.6993 0.765137L99.2436 39.2774H146L105.959 0.765137H59.6993ZM59.6993 0.765137L45.5231 23.1651M45.5231 23.1651L35.3261 39.2774H45.5231V23.1651Z" stroke="#5F62D9" stroke-width="1.26994"/>
<line x1="93.0783" y1="81.7651" x2="93.0783" y2="30.113" stroke="#5F62D9" stroke-width="2"/>
<line x1="20.2256" y1="81.7651" x2="20.2256" y2="30.113" stroke="#5F62D9" stroke-width="2"/>
<ellipse cx="62.1866" cy="29.3383" rx="7.21247" ry="7.20552" fill="white"/>
<path d="M54.4767 48.1762C54.4767 47.241 55.2348 46.4829 56.17 46.4829H68.7007C69.6358 46.4829 70.3939 47.241 70.3939 48.1762V81.7651H54.4767V48.1762Z" fill="white"/>
<rect x="13.0002" y="26.5908" width="14.1005" height="3.52174" fill="#5F62D9"/>
<rect x="14.1754" y="23.0693" width="11.7505" height="3.52174" fill="#5F62D9"/>
<line x1="0.0246277" y1="81.5" x2="159.625" y2="81.5" stroke="#181B9B"/>
</svg>
