<svg width="207" height="82" viewBox="0 0 207 82" fill="none" xmlns="http://www.w3.org/2000/svg">
<g opacity="0.5">
<path opacity="0.7" d="M136.737 47.3042H189.57V50.7012V81.797H136.737V47.3042Z" fill="#7275EC"/>
<path d="M124.036 21.9418L130.132 11.7969H165.037L169.302 16.3061V81.7969H118.121V31.122L124.036 21.9418Z" fill="#181B9B"/>
<path d="M205 45.0791H164.571L130.379 11.7969L118.121 31.1549V45.0791H109.304L118.121 31.1549L130.379 11.7969H170.378L205 45.0791Z" fill="#5F62D9"/>
<path d="M130.379 11.7969L164.571 45.0791H205L170.378 11.7969H130.379ZM130.379 11.7969L118.121 31.1549M118.121 31.1549L109.304 45.0791H118.121V31.1549Z" stroke="#5F62D9" stroke-width="1.26994"/>
<line x1="159.105" y1="81.7969" x2="159.105" y2="37.1592" stroke="#5F62D9" stroke-width="2"/>
<ellipse cx="132.53" cy="36.4902" rx="6.23635" ry="6.22699" fill="white"/>
<path d="M125.863 52.9994C125.863 52.0642 126.621 51.3062 127.556 51.3062H137.933C138.868 51.3062 139.626 52.0642 139.626 52.9994V81.7969H125.863V52.9994Z" fill="white"/>
<rect x="90" y="34.1157" width="12.1922" height="3.04348" fill="#5F62D9"/>
<rect x="91.0161" y="31.0723" width="10.1602" height="3.04348" fill="#5F62D9"/>
</g>
<path opacity="0.7" d="M54.0522 41.8521H115.155V45.7829V81.7651H54.0522V41.8521Z" fill="#7275EC"/>
<path d="M39.3638 12.5043L46.4141 0.765137H86.7823L91.715 5.98293V81.7651H32.523V23.1271L39.3638 12.5043Z" fill="#181B9B"/>
<path d="M133 39.2774H86.2433L46.6991 0.765137L32.5228 23.1651V39.2774H22.3259L32.5228 23.1651L46.6991 0.765137H92.9584L133 39.2774Z" fill="#5F62D9"/>
<path d="M46.6991 0.765137L86.2433 39.2774H133L92.9584 0.765137H46.6991ZM46.6991 0.765137L32.5228 23.1651M32.5228 23.1651L22.3259 39.2774H32.5228V23.1651Z" stroke="#5F62D9" stroke-width="1.26994"/>
<line x1="80.0781" y1="81.7651" x2="80.0781" y2="30.113" stroke="#5F62D9" stroke-width="2"/>
<line x1="7.22538" y1="81.7651" x2="7.22538" y2="30.113" stroke="#5F62D9" stroke-width="2"/>
<ellipse cx="49.1863" cy="29.3383" rx="7.21247" ry="7.20552" fill="white"/>
<path d="M41.4765 48.1762C41.4765 47.241 42.2346 46.4829 43.1697 46.4829H55.7004C56.6356 46.4829 57.3937 47.241 57.3937 48.1762V81.7651H41.4765V48.1762Z" fill="white"/>
<rect y="26.5908" width="14.1005" height="3.52174" fill="#5F62D9"/>
<rect x="1.17512" y="23.0693" width="11.7505" height="3.52174" fill="#5F62D9"/>
</svg>
