<svg width="200" height="184" viewBox="0 0 200 184" fill="none" xmlns="http://www.w3.org/2000/svg">
<circle opacity="0.5" cx="100" cy="92" r="92" fill="#9FE2CE"/>
<ellipse opacity="0.5" cx="100" cy="174" rx="35" ry="10" fill="#89C6B3"/>
<path d="M93.9742 172.008C112.873 172.008 128.193 155.666 128.193 135.507C128.193 115.349 112.873 99.0068 93.9742 99.0068C75.0754 99.0068 59.7549 115.349 59.7549 135.507C59.7549 155.666 75.0754 172.008 93.9742 172.008Z" fill="#1F245A"/>
<path d="M82.5 172.5H109.5V173.5H82.5V172.5Z" stroke="#2F6D55"/>
<path d="M107 169H82V172H107V169Z" fill="#2F6D55"/>
<path d="M108 166H84V169H108V166Z" fill="#3E8F72"/>
<path d="M109 163H82V166H109V163Z" fill="#3E8F72"/>
<path d="M107 160H80V163H107V160Z" fill="#2F6D55"/>
<g filter="url(#filter0_d_2724_2777)">
<path d="M106 161.5L114.727 176.616L117.325 175.116L108.598 160L106 161.5Z" fill="#2F6D55"/>
</g>
<path d="M111 174H83V177H111V174Z" fill="#3E8F72"/>
<path d="M132.604 161.819L131.387 168.511L139.296 169.727L144.467 166.686L144.162 161.819H132.604Z" fill="#437282"/>
<path d="M92.7575 36.1956C92.7575 36.1956 92.1491 43.1916 90.6283 43.4957C89.1074 43.7999 93.9741 55.9667 93.9741 55.9667H101.274L107.054 54.4459L104.316 47.7541C104.316 47.7541 100.666 42.8874 103.403 38.9332C106.141 34.9789 92.7575 36.1956 92.7575 36.1956Z" fill="#FFC59B"/>
<path opacity="0.1" d="M92.7575 36.1956C92.7575 36.1956 92.1491 43.1916 90.6283 43.4957C89.1074 43.7999 93.9741 55.9667 93.9741 55.9667H101.274L107.054 54.4459L104.316 47.7541C104.316 47.7541 100.666 42.8874 103.403 38.9332C106.141 34.9789 92.7575 36.1956 92.7575 36.1956Z" fill="black"/>
<path d="M77.549 89.7299C77.549 89.7299 69.6405 104.938 76.0281 107.98C82.4157 111.022 83.9366 110.718 83.9366 111.63C83.9366 112.543 82.7199 112.239 83.3282 113.759C83.9366 115.28 82.1115 121.364 83.9366 125.014C85.7616 128.664 85.1533 131.401 85.1533 131.401C85.1533 131.401 85.1533 131.706 85.7616 132.922C86.3699 134.139 86.6741 135.051 86.3699 135.66C86.0658 136.268 84.2407 140.222 86.0658 141.135C87.8908 142.047 97.3201 142.656 98.2326 141.135C99.1451 139.614 97.3201 138.701 98.2326 137.789C99.1451 136.876 99.7535 136.572 99.1451 135.964C98.5368 135.356 97.9285 127.751 97.9285 127.751C97.9285 127.751 99.4493 118.93 98.841 117.714C98.2326 116.497 97.3201 115.28 97.9285 114.368C98.5368 113.455 99.1451 113.759 99.4493 112.543C99.7535 111.326 100.362 108.588 100.362 108.588L103.708 108.284L111.616 109.805C111.616 109.805 120.437 119.539 130.171 122.58C130.171 122.58 132.908 125.318 133.821 125.318C134.733 125.318 134.733 125.318 134.429 125.926C134.125 126.535 133.212 126.535 133.821 127.143C134.429 127.751 135.342 126.839 134.733 127.751C134.125 128.664 133.517 128.664 134.125 129.272C134.733 129.88 133.821 133.226 133.821 133.531C133.821 133.835 131.083 162.427 131.996 163.035C132.908 163.644 145.683 165.469 146.596 163.035C147.508 160.602 145.988 157.56 145.988 157.56C145.988 157.56 150.55 121.06 149.333 118.626C148.117 116.193 143.858 105.243 121.045 98.2467C121.045 98.2467 114.658 97.03 114.658 96.1175C114.658 95.205 114.05 89.4257 112.833 89.1215C111.616 88.8174 104.62 88.5132 104.62 88.5132L95.7993 91.2507L83.6324 89.1215L77.549 89.7299Z" fill="#050A35"/>
<path d="M88.195 140.83L86.6741 146.306C86.6741 146.306 85.4575 155.127 86.9783 157.256C88.1729 158.928 90.3058 160.976 94.2615 161.335C95.3701 161.437 96.4802 161.157 97.4083 160.542C98.3363 159.927 99.0266 159.014 99.3651 157.954C99.4105 157.827 99.4388 157.694 99.4493 157.56C99.4493 156.952 98.5368 149.651 98.5368 149.651L97.016 142.047L96.7118 139.918L88.195 140.83Z" fill="#050A35"/>
<path d="M132.604 166.989C132.604 166.989 131.083 165.469 130.779 166.989C130.475 168.51 129.258 174.898 131.387 175.202C133.516 175.506 153.896 178.548 156.025 177.331C158.154 176.115 162.109 174.289 159.675 173.377C157.242 172.464 150.246 169.727 150.246 169.727C150.246 169.727 146.292 164.556 145.683 164.252C145.075 163.948 141.729 164.556 140.208 165.773C138.687 166.989 132.604 166.989 132.604 166.989Z" fill="#050A35"/>
<path d="M100.058 42.5832C105.265 42.5832 109.487 38.3616 109.487 33.1539C109.487 27.9463 105.265 23.7246 100.058 23.7246C94.8499 23.7246 90.6283 27.9463 90.6283 33.1539C90.6283 38.3616 94.8499 42.5832 100.058 42.5832Z" fill="#FFC59B"/>
<path d="M99.145 54.4462L95.4949 50.492L91.449 42.5835C91.449 42.5835 88.499 41.671 87.8907 43.1918C87.2823 44.7127 76.3322 49.5794 76.3322 49.5794C76.3322 49.5794 79.0697 75.1298 77.853 77.5632C76.6363 79.9966 74.5071 89.7301 76.3322 90.6426C78.1572 91.5551 86.674 90.6426 89.4115 91.8593C92.1491 93.0759 100.058 93.0759 102.187 91.5551C104.316 90.0342 104.924 88.8175 107.053 89.7301C108.866 90.5069 113.104 63.9482 114.324 56.0337C114.426 55.3689 114.341 54.6887 114.077 54.07C113.813 53.4512 113.382 52.9187 112.831 52.5327C110.102 50.6183 105.186 47.3193 104.316 47.7544C103.099 48.3628 99.145 54.4462 99.145 54.4462Z" fill="#437282"/>
<path d="M112.225 53.2295C112.939 53.4081 113.581 53.8009 114.066 54.3553C114.55 54.9097 114.854 55.599 114.935 56.3308L117.395 78.4757C117.395 78.4757 111.312 91.5551 108.27 82.7341C105.229 73.9131 112.225 53.2295 112.225 53.2295Z" fill="#437282"/>
<path d="M111.616 80.6048L118.308 78.7798C118.308 78.7798 119.525 87.2966 120.741 87.2966C121.958 87.2966 116.483 92.1633 113.745 91.555C111.008 90.9466 107.054 88.8174 106.749 87.2966C106.445 85.7757 109.487 79.3881 109.487 79.3881L111.616 80.6048Z" fill="#437282"/>
<path d="M92.9395 37.2215C93.5807 35.8077 93.4693 34.1586 93.9994 32.6995C94.2833 31.9183 94.7439 31.2132 95.3453 30.6394C95.9467 30.0656 96.6727 29.6386 97.4664 29.3918C98.2602 29.145 99.1003 29.0851 99.921 29.2167C100.742 29.3482 101.521 29.6678 102.198 30.1504C102.88 30.6366 103.563 31.3197 104.396 31.2268C105.292 31.1269 106.091 30.127 106.915 30.4934C107.829 30.8996 107.582 32.5365 108.507 32.9145C108.995 33.1136 109.57 32.8071 109.851 32.3623C110.097 31.8948 110.231 31.3766 110.242 30.8486C110.37 29.5513 110.485 28.1783 109.923 27.0024C109.686 26.6039 109.48 26.188 109.306 25.7584C109.207 25.3572 109.168 24.9438 109.188 24.5312C109.183 23.0064 108.267 22.8177 107.5 21.5C106.649 20.0378 105.074 19.1028 103.432 18.6948C101.79 18.2869 99.1294 17.8258 97.4664 18.1381C94.5001 18.6951 93.696 18.9057 91.5001 20.6384C91.2016 20.8564 90.7031 21.3295 90.5001 21.6384C90.3073 22.0053 90.211 22.2609 90.1359 22.6685C89.6612 24.6018 88.9493 25.3307 88.0166 27.0894C87.5679 27.835 87.2012 28.627 86.9229 29.4515C86.6901 30.2893 86.7058 31.2441 87.1933 31.9642C87.5901 32.5504 88.2246 32.8629 88.7231 33.3422C89.217 33.8171 89.4481 34.7305 89.9953 35.0902C90.4729 35.4041 91.0451 35.1825 91.5322 35.5153C92.1577 35.9425 92.2029 36.8792 92.9395 37.2215Z" fill="#050A35"/>
<path d="M100.666 59.0086L101.579 57.1836C101.579 57.1836 114.962 61.1378 117.7 64.7879C117.7 64.7879 124.391 60.5295 128.041 61.1378L131.691 61.7462L120.437 71.7838L106.141 70.5671L100.666 59.0086Z" fill="#F2F2F2"/>
<path d="M100.058 57.1836L87.5865 74.5214L105.533 83.3423C105.533 83.3423 107.21 84.2548 108.501 83.3423L120.437 77.8672L131.691 61.7462L120.437 67.5254C120.437 67.5254 119.22 65.092 116.787 66.3087L100.058 57.1836Z" fill="#3E8F72"/>
<path d="M119.22 87.905L121.654 81.5174C121.654 81.5174 127.129 74.5214 124.087 71.1756C121.045 67.8297 117.699 80.909 117.699 80.909L119.22 87.905Z" fill="#FFC59B"/>
<path d="M91.1447 86.8853L96.4543 82.5807C96.4543 82.5807 104.7 79.2759 103.748 74.8555C102.795 70.4352 93.339 80.0706 93.339 80.0706L91.1447 86.8853Z" fill="#FFC59B"/>
<path opacity="0.1" d="M78.0052 56.1188H77.701C77.701 56.1188 72.9864 50.4916 72.0738 58.0959C71.1613 65.7002 68.1196 90.9464 76.0281 91.8589C83.9365 92.7714 89.5637 88.0568 89.5637 88.0568C89.5637 88.0568 95.343 79.2358 93.2138 79.2358C92.1836 79.2358 89.3817 78.7731 86.8262 78.9317C84.1 79.1008 81.6503 79.8687 81.8073 79.0837C82.1115 77.5629 86.522 58.248 78.0052 56.1188Z" fill="black"/>
<path d="M77.5489 50.1874L76.3322 49.5791C76.3322 49.5791 71.4655 50.4916 70.553 58.0959C69.6405 65.7002 66.5987 90.9464 74.5072 91.8589C82.4157 92.7714 93.0617 90.6422 93.0617 90.6422C93.0617 90.6422 95.1909 79.0837 93.0617 79.0837C90.9325 79.0837 79.9823 80.6046 80.2865 79.0837C80.5906 77.5629 86.0657 52.3166 77.5489 50.1874Z" fill="#437282"/>
<path d="M114.81 84.4069L118.164 79.2661L120.285 87.7528L114.81 90.1862V84.4069Z" fill="#437282"/>
<circle cx="184" cy="67" r="16" fill="#3E8F72"/>
<circle cx="16" cy="67" r="16" fill="#F64040"/>
<path d="M190.707 62.2929C191.098 62.6835 191.098 63.3178 190.707 63.7083L182.708 71.7071C182.317 72.0976 181.683 72.0976 181.292 71.7071L177.293 67.7077C176.902 67.3171 176.902 66.6829 177.293 66.2923C177.684 65.9017 178.318 65.9017 178.708 66.2923L182.002 69.5824L189.295 62.2929C189.685 61.9024 190.32 61.9024 190.71 62.2929H190.707Z" fill="white"/>
<path d="M20.704 64.7078C21.0945 64.3174 21.0945 63.6833 20.704 63.2928C20.3136 62.9024 19.6795 62.9024 19.2891 63.2928L16 66.585L12.7078 63.296C12.3174 62.9055 11.6833 62.9055 11.2928 63.296C10.9024 63.6864 10.9024 64.3205 11.2928 64.7109L14.585 68L11.296 71.2922C10.9055 71.6826 10.9055 72.3167 11.296 72.7072C11.6864 73.0976 12.3205 73.0976 12.7109 72.7072L16 69.415L19.2922 72.704C19.6826 73.0945 20.3167 73.0945 20.7072 72.704C21.0976 72.3136 21.0976 71.6795 20.7072 71.2891L17.415 68L20.704 64.7078Z" fill="white"/>
<circle cx="39" cy="69" r="2" fill="#F64040"/>
<circle cx="47" cy="69" r="2" fill="#F57070"/>
<circle cx="138" cy="69" r="2" fill="#9FE2CE"/>
<circle cx="55" cy="69" r="2" fill="#F99696"/>
<circle cx="146" cy="69" r="2" fill="#6ADFB5"/>
<circle cx="63" cy="69" r="2" fill="#FFB9B9"/>
<circle cx="154" cy="69" r="2" fill="#4CBF96"/>
<circle cx="162" cy="69" r="2" fill="#3E8F72"/>
<defs>
<filter id="filter0_d_2724_2777" x="100" y="156" width="19.3253" height="24.6162" filterUnits="userSpaceOnUse" color-interpolation-filters="sRGB">
<feFlood flood-opacity="0" result="BackgroundImageFix"/>
<feColorMatrix in="SourceAlpha" type="matrix" values="0 0 0 0 0 0 0 0 0 0 0 0 0 0 0 0 0 0 127 0" result="hardAlpha"/>
<feOffset dx="-2"/>
<feGaussianBlur stdDeviation="2"/>
<feComposite in2="hardAlpha" operator="out"/>
<feColorMatrix type="matrix" values="0 0 0 0 0 0 0 0 0 0 0 0 0 0 0 0 0 0 0.25 0"/>
<feBlend mode="normal" in2="BackgroundImageFix" result="effect1_dropShadow_2724_2777"/>
<feBlend mode="normal" in="SourceGraphic" in2="effect1_dropShadow_2724_2777" result="shape"/>
</filter>
</defs>
</svg>
