<svg width="102" height="20" viewBox="0 0 102 20" fill="none" xmlns="http://www.w3.org/2000/svg">
<path d="M0.93101 14V4.33139H2.43745L3.08111 6.26237V14H0.93101ZM7.60043 14L1.90335 6.70061L2.43745 4.33139L8.13454 11.6308L7.60043 14ZM7.60043 14L7.02525 12.069V4.33139H9.17535V14H7.60043ZM14.1368 14.1506C13.4155 14.1506 12.7718 14.0046 12.2058 13.7124C11.6488 13.4111 11.2106 12.9957 10.8911 12.4662C10.5715 11.9366 10.4117 11.3386 10.4117 10.6721C10.4117 10.0056 10.567 9.4122 10.8774 8.8918C11.1969 8.36226 11.626 7.94685 12.1647 7.64556C12.7034 7.34427 13.3105 7.19363 13.9861 7.19363C14.6435 7.19363 15.2232 7.33514 15.7254 7.61817C16.2275 7.9012 16.6201 8.29379 16.9031 8.79593C17.1953 9.29808 17.3414 9.87327 17.3414 10.5215C17.3414 10.6402 17.3322 10.768 17.314 10.9049C17.3048 11.0328 17.282 11.1834 17.2455 11.3569L11.5073 11.3706V9.93261L16.3553 9.91892L15.4515 10.5215C15.4423 10.138 15.383 9.82305 15.2734 9.57654C15.1639 9.3209 14.9995 9.12918 14.7804 9.00136C14.5704 8.86441 14.3102 8.79593 13.9998 8.79593C13.6711 8.79593 13.3835 8.87354 13.137 9.02875C12.8997 9.17483 12.7125 9.38481 12.5755 9.65871C12.4477 9.93261 12.3838 10.2659 12.3838 10.6584C12.3838 11.051 12.4523 11.3888 12.5892 11.6719C12.7353 11.9458 12.9362 12.1603 13.1918 12.3155C13.4566 12.4616 13.767 12.5346 14.1231 12.5346C14.4517 12.5346 14.7485 12.4799 15.0132 12.3703C15.278 12.2516 15.5108 12.0781 15.7117 11.8499L16.862 13.0003C16.5334 13.3837 16.1362 13.6713 15.6706 13.8631C15.205 14.0548 14.6937 14.1506 14.1368 14.1506ZM22.3011 14L20.6988 11.4117L20.2468 11.1241L17.6311 7.34427H20.0825L21.5752 9.76827L22.0135 10.0422L24.7251 14H22.3011ZM17.5078 14L20.2331 10.1243L21.4246 11.4664L19.7949 14H17.5078ZM21.9998 11.1104L20.8083 9.76827L22.3148 7.34427H24.5881L21.9998 11.1104ZM28.4793 14.1506C27.8676 14.1506 27.3244 14.0274 26.8496 13.7809C26.384 13.5252 26.0188 13.1783 25.754 12.7401C25.4892 12.2927 25.3569 11.7814 25.3569 11.2062V7.34427H27.4522V11.1788C27.4522 11.4071 27.4887 11.6034 27.5617 11.7677C27.6439 11.9321 27.7626 12.0599 27.9178 12.1512C28.073 12.2425 28.2602 12.2881 28.4793 12.2881C28.7897 12.2881 29.0362 12.1923 29.2188 12.0005C29.4014 11.7997 29.4927 11.5258 29.4927 11.1788V7.34427H31.588V11.1925C31.588 11.7769 31.4557 12.2927 31.1909 12.7401C30.9261 13.1783 30.5609 13.5252 30.0953 13.7809C29.6297 14.0274 29.091 14.1506 28.4793 14.1506ZM35.3276 14.1643C34.935 14.1643 34.547 14.1141 34.1635 14.0137C33.7892 13.9133 33.4377 13.7718 33.109 13.5892C32.7895 13.3974 32.5156 13.1783 32.2873 12.9318L33.4788 11.7266C33.6979 11.964 33.9581 12.1512 34.2594 12.2881C34.5607 12.416 34.8894 12.4799 35.2454 12.4799C35.4919 12.4799 35.6791 12.4433 35.8069 12.3703C35.9439 12.2973 36.0123 12.1968 36.0123 12.069C36.0123 11.9047 35.9302 11.7814 35.7658 11.6993C35.6106 11.608 35.4098 11.5304 35.1633 11.4664C34.9168 11.3934 34.6566 11.3158 34.3827 11.2336C34.1088 11.1515 33.8486 11.0373 33.602 10.8913C33.3555 10.7452 33.1547 10.5443 32.9995 10.2887C32.8443 10.0239 32.7667 9.69067 32.7667 9.28895C32.7667 8.85984 32.8762 8.49008 33.0953 8.17966C33.3145 7.86011 33.6249 7.60904 34.0266 7.42644C34.4283 7.24384 34.8985 7.15254 35.4372 7.15254C36.0032 7.15254 36.5236 7.25297 36.9984 7.45383C37.4823 7.64556 37.8749 7.93315 38.1761 8.31661L36.9847 9.52176C36.7747 9.27525 36.5373 9.10179 36.2726 9.00136C36.0169 8.90093 35.7658 8.85071 35.5193 8.85071C35.282 8.85071 35.1039 8.88723 34.9852 8.96027C34.8665 9.02418 34.8072 9.12005 34.8072 9.24786C34.8072 9.38481 34.8848 9.49437 35.04 9.57654C35.1952 9.65871 35.3961 9.73175 35.6426 9.79566C35.8891 9.85957 36.1493 9.93718 36.4232 10.0285C36.6971 10.1198 36.9573 10.243 37.2038 10.3982C37.4503 10.5534 37.6512 10.7634 37.8064 11.0282C37.9616 11.2838 38.0392 11.6216 38.0392 12.0416C38.0392 12.6899 37.7927 13.2057 37.2997 13.5892C36.8158 13.9726 36.1584 14.1643 35.3276 14.1643Z" fill="black"/>
<path d="M53.6383 14V10.2065C53.6383 9.85957 53.5287 9.58111 53.3096 9.37112C53.0996 9.152 52.8303 9.04244 52.5016 9.04244C52.2734 9.04244 52.0725 9.09266 51.899 9.19309C51.7256 9.28438 51.5886 9.42133 51.4882 9.60393C51.3877 9.7774 51.3375 9.97826 51.3375 10.2065L50.5295 9.80936C50.5295 9.28895 50.6391 8.83245 50.8582 8.43986C51.0773 8.04728 51.3832 7.74599 51.7758 7.536C52.1684 7.31688 52.6203 7.20732 53.1316 7.20732C53.652 7.20732 54.1085 7.31688 54.5011 7.536C54.8936 7.74599 55.1949 8.04271 55.4049 8.42617C55.624 8.8005 55.7336 9.23873 55.7336 9.74088V14H53.6383ZM49.2422 14V4.05749H51.3375V14H49.2422ZM60.3661 14.1506C59.6449 14.1506 59.0012 14.0046 58.4351 13.7124C57.8782 13.4111 57.44 12.9957 57.1204 12.4662C56.8009 11.9366 56.6411 11.3386 56.6411 10.6721C56.6411 10.0056 56.7963 9.4122 57.1067 8.8918C57.4263 8.36226 57.8554 7.94685 58.3941 7.64556C58.9327 7.34427 59.5399 7.19363 60.2155 7.19363C60.8728 7.19363 61.4526 7.33514 61.9547 7.61817C62.4569 7.9012 62.8495 8.29379 63.1325 8.79593C63.4246 9.29808 63.5707 9.87327 63.5707 10.5215C63.5707 10.6402 63.5616 10.768 63.5433 10.9049C63.5342 11.0328 63.5114 11.1834 63.4749 11.3569L57.7367 11.3706V9.93261L62.5847 9.91892L61.6808 10.5215C61.6717 10.138 61.6124 9.82305 61.5028 9.57654C61.3932 9.3209 61.2289 9.12918 61.0098 9.00136C60.7998 8.86441 60.5396 8.79593 60.2292 8.79593C59.9005 8.79593 59.6129 8.87354 59.3664 9.02875C59.129 9.17483 58.9418 9.38481 58.8049 9.65871C58.6771 9.93261 58.6132 10.2659 58.6132 10.6584C58.6132 11.051 58.6816 11.3888 58.8186 11.6719C58.9647 11.9458 59.1655 12.1603 59.4212 12.3155C59.6859 12.4616 59.9964 12.5346 60.3524 12.5346C60.6811 12.5346 60.9778 12.4799 61.2426 12.3703C61.5074 12.2516 61.7402 12.0781 61.941 11.8499L63.0914 13.0003C62.7627 13.3837 62.3656 13.6713 61.8999 13.8631C61.4343 14.0548 60.923 14.1506 60.3661 14.1506ZM64.5821 14V7.34427H66.6774V14H64.5821ZM66.6774 10.3435L65.801 9.65871C65.9744 8.88267 66.2666 8.28009 66.6774 7.85098C67.0883 7.42188 67.6589 7.20732 68.3893 7.20732C68.7089 7.20732 68.9873 7.25754 69.2247 7.35797C69.4712 7.44927 69.6858 7.59535 69.8684 7.7962L68.6221 9.37112C68.5308 9.27069 68.4167 9.19309 68.2797 9.13831C68.1428 9.08353 67.9876 9.05614 67.8141 9.05614C67.4672 9.05614 67.1887 9.1657 66.9787 9.38481C66.7779 9.5948 66.6774 9.91435 66.6774 10.3435ZM73.5261 14.1506C72.8048 14.1506 72.1611 14.0046 71.5951 13.7124C71.0382 13.4111 70.5999 12.9957 70.2804 12.4662C69.9608 11.9366 69.8011 11.3386 69.8011 10.6721C69.8011 10.0056 69.9563 9.4122 70.2667 8.8918C70.5862 8.36226 71.0153 7.94685 71.554 7.64556C72.0927 7.34427 72.6998 7.19363 73.3754 7.19363C74.0328 7.19363 74.6125 7.33514 75.1147 7.61817C75.6168 7.9012 76.0094 8.29379 76.2924 8.79593C76.5846 9.29808 76.7307 9.87327 76.7307 10.5215C76.7307 10.6402 76.7216 10.768 76.7033 10.9049C76.6942 11.0328 76.6713 11.1834 76.6348 11.3569L70.8967 11.3706V9.93261L75.7447 9.91892L74.8408 10.5215C74.8317 10.138 74.7723 9.82305 74.6628 9.57654C74.5532 9.3209 74.3889 9.12918 74.1697 9.00136C73.9597 8.86441 73.6995 8.79593 73.3891 8.79593C73.0604 8.79593 72.7729 8.87354 72.5263 9.02875C72.289 9.17483 72.1018 9.38481 71.9649 9.65871C71.837 9.93261 71.7731 10.2659 71.7731 10.6584C71.7731 11.051 71.8416 11.3888 71.9786 11.6719C72.1246 11.9458 72.3255 12.1603 72.5811 12.3155C72.8459 12.4616 73.1563 12.5346 73.5124 12.5346C73.8411 12.5346 74.1378 12.4799 74.4026 12.3703C74.6673 12.2516 74.9001 12.0781 75.101 11.8499L76.2514 13.0003C75.9227 13.3837 75.5255 13.6713 75.0599 13.8631C74.5943 14.0548 74.083 14.1506 73.5261 14.1506ZM85.1295 14.1506C84.4083 14.1506 83.7372 14.0274 83.1164 13.7809C82.5047 13.5252 81.966 13.1692 81.5004 12.7127C81.0439 12.2562 80.6878 11.7266 80.4322 11.1241C80.1765 10.5124 80.0487 9.85501 80.0487 9.152C80.0487 8.44899 80.1765 7.7962 80.4322 7.19363C80.6878 6.58192 81.0439 6.05238 81.5004 5.60502C81.9569 5.15765 82.491 4.81071 83.1027 4.5642C83.7235 4.30857 84.3946 4.18075 85.1158 4.18075C85.8827 4.18075 86.5629 4.304 87.1564 4.55051C87.7589 4.79702 88.2839 5.13483 88.7313 5.56393L87.2933 7.01559C87.0377 6.7417 86.7273 6.52714 86.3621 6.37193C86.006 6.21672 85.5906 6.13912 85.1158 6.13912C84.6958 6.13912 84.3078 6.21216 83.9518 6.35824C83.6048 6.49519 83.3035 6.69605 83.0479 6.96081C82.8014 7.22558 82.6051 7.54513 82.459 7.91946C82.3221 8.29379 82.2536 8.70463 82.2536 9.152C82.2536 9.6085 82.3221 10.0239 82.459 10.3982C82.6051 10.7726 82.8014 11.0921 83.0479 11.3569C83.3035 11.6216 83.6048 11.8271 83.9518 11.9732C84.3078 12.1192 84.6958 12.1923 85.1158 12.1923C85.6088 12.1923 86.0379 12.1147 86.4031 11.9595C86.7683 11.8042 87.0833 11.5897 87.3481 11.3158L88.7998 12.7675C88.3341 13.1966 87.8 13.5344 87.1975 13.7809C86.604 14.0274 85.9147 14.1506 85.1295 14.1506ZM92.8361 14.1506C92.1514 14.1506 91.5305 14 90.9736 13.6987C90.4258 13.3883 89.9921 12.9683 89.6726 12.4388C89.353 11.9092 89.1933 11.3158 89.1933 10.6584C89.1933 10.0011 89.353 9.4122 89.6726 8.8918C89.9921 8.37139 90.4258 7.96054 90.9736 7.65925C91.5214 7.34884 92.1422 7.19363 92.8361 7.19363C93.53 7.19363 94.1508 7.34427 94.6986 7.64556C95.2464 7.94685 95.6801 8.36226 95.9996 8.8918C96.3192 9.4122 96.479 10.0011 96.479 10.6584C96.479 11.3158 96.3192 11.9092 95.9996 12.4388C95.6801 12.9683 95.2464 13.3883 94.6986 13.6987C94.1508 14 93.53 14.1506 92.8361 14.1506ZM92.8361 12.2471C93.1374 12.2471 93.4022 12.1831 93.6304 12.0553C93.8587 11.9184 94.0321 11.7312 94.1508 11.4938C94.2786 11.2473 94.3426 10.9689 94.3426 10.6584C94.3426 10.348 94.2786 10.0787 94.1508 9.85044C94.023 9.61306 93.845 9.43046 93.6167 9.30264C93.3976 9.1657 93.1374 9.09722 92.8361 9.09722C92.544 9.09722 92.2838 9.1657 92.0555 9.30264C91.8273 9.43046 91.6492 9.61306 91.5214 9.85044C91.3936 10.0878 91.3297 10.3617 91.3297 10.6721C91.3297 10.9734 91.3936 11.2473 91.5214 11.4938C91.6492 11.7312 91.8273 11.9184 92.0555 12.0553C92.2838 12.1831 92.544 12.2471 92.8361 12.2471ZM98.663 14.1506C98.3069 14.1506 98.0102 14.0274 97.7728 13.7809C97.5354 13.5344 97.4167 13.2376 97.4167 12.8907C97.4167 12.5255 97.5354 12.2242 97.7728 11.9868C98.0102 11.7403 98.3069 11.6171 98.663 11.6171C99.0282 11.6171 99.3249 11.7403 99.5532 11.9868C99.7905 12.2242 99.9092 12.5255 99.9092 12.8907C99.9092 13.2376 99.7905 13.5344 99.5532 13.7809C99.3249 14.0274 99.0282 14.1506 98.663 14.1506Z" fill="black"/>
<path d="M39.0873 11.1271H40.7992V18.2599C40.7992 19.0477 40.1605 19.6864 39.3726 19.6864H39.0873V11.1271Z" fill="black" stroke="black" stroke-width="0.570621"/>
<circle cx="43.367" cy="10.8418" r="3.99435" fill="white" stroke="black" stroke-width="1.14124"/>
<circle cx="44.7934" cy="9.41526" r="0.570621" stroke="black" stroke-width="0.570621"/>
<circle cx="44.2229" cy="9.98583" r="2.5678" stroke="black" stroke-width="1.14124"/>
</svg>
