<svg width="34" height="32" viewBox="0 0 34 32" fill="none" xmlns="http://www.w3.org/2000/svg">
<path d="M14.9844 17.1684L17.3472 21.0643C17.0853 21.4414 15.875 22.6081 14.9569 21.7775L12.9373 18.3323C10.6568 14.4411 12.0155 9.44835 15.9658 7.20245C19.7592 5.04501 24.5851 6.1931 26.9829 9.73421C26.2047 9.96048 25.4965 10.3469 24.8962 10.8553C23.146 8.46135 19.7951 7.71271 17.1477 9.21836C14.3253 10.8227 13.3552 14.389 14.9844 17.1684ZM30.018 19.5316C30.7905 19.2905 31.4769 18.8594 32.0215 18.2932L27.4897 10.5639C26.6964 10.7492 25.9816 11.1319 25.4001 11.6552L30.018 19.5316ZM32.8933 19.7803L32.5103 19.1266C31.9402 19.6639 31.2566 20.0857 30.4992 20.3529L30.8462 20.9442C32.4754 23.7236 31.5043 27.2899 28.6829 28.8942C25.8606 30.4986 22.2393 29.5432 20.6102 26.7638L19.6363 25.0607C18.999 25.6148 18.3173 26.0207 17.5637 26.2228L18.5631 27.9277C20.8446 31.8189 25.9145 33.156 29.8648 30.9101C33.8152 28.6642 35.1739 23.6715 32.8933 19.7803ZM3.50303 11.644C2.74473 11.9261 2.08003 12.3954 1.56568 12.9941L6.01336 20.582C6.82272 20.4395 7.55927 20.095 8.16912 19.6024L3.50303 11.644ZM5.07258 3.24325C7.92613 1.43871 11.712 2.36799 13.3883 5.22751L14.3528 6.8719C15.0127 6.34953 15.6623 5.93704 16.4159 5.73498L15.4864 4.15111C13.2531 0.339968 8.34972 -1.12564 4.40221 0.934965C0.267491 3.09334 -1.2094 8.17922 1.07023 12.1477C1.61957 11.5797 2.28805 11.1263 3.03595 10.8255C1.67157 8.1699 2.50362 4.86809 5.07258 3.24325ZM21.0612 13.659L19.328 10.7026C19.0869 10.292 18.4733 10.129 18.2993 10.1411C17.6441 10.1886 17.3217 10.4977 16.7525 10.9661L18.9706 14.7493C20.5553 17.4515 19.7601 20.9414 17.0947 22.6267C14.2412 24.4313 10.4554 23.502 8.77898 20.6425L8.64566 20.4153C8.02351 20.8911 7.29831 21.2412 6.50975 21.4293L6.67994 21.7189C8.91419 25.5291 13.8176 26.9947 17.7651 24.935C21.9216 22.7655 23.3928 17.6368 21.0612 13.659ZM28.5884 10.4372C28.2102 10.4372 27.8424 10.481 27.4897 10.5639C26.6964 10.7492 25.9816 11.1319 25.4001 11.6552C24.4537 12.5071 23.8608 13.7316 23.8608 15.0929C23.8608 17.6638 25.9769 19.7486 28.5884 19.7486C29.0867 19.7486 29.567 19.6722 30.018 19.5316C30.7905 19.2905 31.4769 18.8594 32.0215 18.2932C32.8233 17.4599 33.3159 16.3332 33.3159 15.0929C33.3159 12.522 31.1989 10.4372 28.5884 10.4372ZM28.5884 10.4372C28.2102 10.4372 27.8424 10.481 27.4897 10.5639C26.6964 10.7492 25.9816 11.1319 25.4001 11.6552C24.4537 12.5071 23.8608 13.7316 23.8608 15.0929C23.8608 17.6638 25.9769 19.7486 28.5884 19.7486C29.0867 19.7486 29.567 19.6722 30.018 19.5316C30.7905 19.2905 31.4769 18.8594 32.0215 18.2932C32.8233 17.4599 33.3159 16.3332 33.3159 15.0929C33.3159 12.522 31.1989 10.4372 28.5884 10.4372ZM5.17658 11.3432C4.58753 11.3432 4.02306 11.4494 3.50303 11.644C2.74473 11.9261 2.08003 12.3954 1.56568 12.9941C0.868836 13.8051 0.449029 14.8536 0.449029 15.9989C0.449029 18.5698 2.56508 20.6546 5.17658 20.6546C5.46213 20.6546 5.742 20.6295 6.01336 20.582C6.82272 20.4395 7.55927 20.095 8.16912 19.6024C9.2281 18.7486 9.90413 17.4515 9.90413 15.9989C9.90413 13.428 7.78714 11.3432 5.17658 11.3432ZM5.17658 11.3432C4.58753 11.3432 4.02306 11.4494 3.50303 11.644C2.74473 11.9261 2.08003 12.3954 1.56568 12.9941C0.868836 13.8051 0.449029 14.8536 0.449029 15.9989C0.449029 18.5698 2.56508 20.6546 5.17658 20.6546C5.46213 20.6546 5.742 20.6295 6.01336 20.582C6.82272 20.4395 7.55927 20.095 8.16912 19.6024C9.2281 18.7486 9.90413 17.4515 9.90413 15.9989C9.90413 13.428 7.78714 11.3432 5.17658 11.3432Z" fill="url(#paint0_linear_1776_1156)"/>
<defs>
<linearGradient id="paint0_linear_1776_1156" x1="-1.04771" y1="9.53961" x2="34.9078" y2="22.8281" gradientUnits="userSpaceOnUse">
<stop stop-color="#2E3192"/>
<stop offset="0.36" stop-color="#4158A7"/>
<stop offset="1" stop-color="#00A651"/>
</linearGradient>
</defs>
</svg>
