<svg width="361" height="536" viewBox="0 0 361 536" fill="none" xmlns="http://www.w3.org/2000/svg">
<path d="M0 185C0 185 55.1819 268 116 268C181.5 268 215.765 212.723 260.5 105.5C292 30 361 0 361 0V528H0V185Z" fill="#74C0BC"/>
<path d="M0 185C0 185 55.1819 268 116 268C181.5 268 215.765 212.723 260.5 105.5C292 30 361 0 361 0V528H0V185Z" fill="#74C0BC"/>
<path d="M166 296.5C93.5 304.5 10.5 338.5 0.5 379.5V536H359.5V195.5C359.5 275.149 246.652 287.601 166.443 296.451L166 296.5Z" fill="#A3D2CB"/>
</svg>
