<svg width="122" height="164" viewBox="0 0 122 164" fill="none" xmlns="http://www.w3.org/2000/svg">
<ellipse opacity="0.5" cx="61.5" cy="150.5" rx="52.5" ry="8.5" fill="#3336AB"/>
<circle opacity="0.5" cx="59.8498" cy="74.238" r="52.1501" fill="#9FE2CE"/>
<path fill-rule="evenodd" clip-rule="evenodd" d="M93.0558 77.415C98.57 73.3895 96.1375 59.4595 87.145 45.0987C77.6077 29.868 64.3031 19.9203 57.4283 22.88C55.1394 23.8654 53.8518 26.1574 53.5045 29.3388L17.7652 76.5521C17.128 77.3939 16.9598 78.5008 17.3183 79.4938C17.6184 80.3251 17.5518 81.2446 17.135 82.024L16.4006 83.3971C15.5372 85.0114 15.625 86.9685 16.6296 88.4989L17.5824 89.9505C18.5724 91.4587 20.2981 92.3166 22.0981 92.1955L24.3633 92.043C24.7836 92.0147 25.2054 92.0687 25.6051 92.2019C26.1895 92.3967 26.8173 92.4208 27.4149 92.2714L28.4999 92.0002L46.6448 86.1308C46.8812 86.0544 47.1229 85.9957 47.368 85.9551L90.2828 78.8589C91.4083 78.6728 92.3512 78.1444 93.0558 77.415Z" fill="#5F62D9"/>
<path d="M47.0113 118.708L34.5119 91.1698L48.9349 86.7989L63.6641 105.474C59.4621 114.723 55.6448 117.318 47.0113 118.708Z" fill="#181B9B"/>
<ellipse cx="11.7766" cy="32.5383" rx="11.7766" ry="32.5383" transform="matrix(0.918498 -0.395426 0.530722 0.847546 45.5859 28.3237)" fill="#181B9B"/>
<path d="M63.5071 50.3713C63.5071 50.3713 69.5907 48.8558 71.1121 48.8578C72.5306 48.8596 75.9004 54.0868 75.9026 55.6864C75.9048 57.286 72.0006 63.6571 72.0006 63.6571C70.0024 61.1459 68.8457 59.9919 67.4288 57.7754C65.8621 55.3688 64.9983 53.5188 63.5071 50.3713Z" fill="white"/>
<path d="M36.3451 52.3814L30.4117 60.1432L38.4004 63.6709L34.1336 68.4693L47.7572 78.4232L39.0423 67.8923L44.7487 62.5362L36.3451 52.3814Z" fill="white"/>
<path d="M24.5001 92.0004L17.5002 79.5002L14 86L18.5513 91.5301L21.5001 92.5004L24.5001 92.0004Z" fill="#181B9B"/>
<path d="M98.2041 12.2089C98.9798 9.31371 101.877 7.56721 104.665 8.31423L107.192 8.99142C109.98 9.73845 111.616 12.6997 110.841 15.5948L110.762 15.8901C110.282 17.678 108.96 19.1081 107.257 19.6804L103.329 21.01C100.983 21.8053 99.1689 23.7719 98.5118 26.2242L98.4789 26.3472C98.0899 27.7989 98.905 29.2744 100.303 29.6489C101.701 30.0235 103.144 29.1533 103.533 27.7016L103.564 27.5868C103.744 26.9143 104.243 26.3798 104.877 26.1628L108.805 24.8333C112.215 23.6722 114.858 20.8204 115.816 17.2445L115.895 16.9492C117.449 11.1507 114.183 5.23856 108.599 3.7424L106.072 3.06521C100.488 1.56904 94.7032 5.05596 93.1495 10.8545C92.7605 12.3062 93.5756 13.7816 94.9735 14.1562C96.3714 14.5308 97.8151 13.6606 98.2041 12.2089ZM97.49 40.147C98.3278 40.3715 99.224 40.2412 99.9813 39.7847C100.739 39.3282 101.295 38.5829 101.528 37.7128C101.761 36.8428 101.652 35.9191 101.224 35.1451C100.797 34.3712 100.086 33.8102 99.2481 33.5857C98.4102 33.3612 97.5141 33.4915 96.7568 33.948C95.9995 34.4045 95.443 35.1498 95.2099 36.0199C94.9768 36.8899 95.086 37.8136 95.5136 38.5875C95.9412 39.3615 96.6521 39.9225 97.49 40.147Z" fill="#3336AB"/>
</svg>
