<svg width="188" height="219" viewBox="0 0 188 219" fill="none" xmlns="http://www.w3.org/2000/svg">
<circle opacity="0.5" cx="94.0372" cy="86.8499" r="86.8499" fill="#9FE2CE"/>
<g filter="url(#filter0_d_2890_2957)">
<rect x="52.5245" y="27.5522" width="101.683" height="116.892" rx="4.34543" transform="rotate(5.9939 52.5245 27.5522)" fill="white"/>
<rect x="52.7911" y="27.8814" width="101.084" height="116.293" rx="4.04595" transform="rotate(5.9939 52.7911 27.8814)" stroke="#1D2276" stroke-width="0.598965"/>
</g>
<g filter="url(#filter1_d_2890_2957)">
<rect x="43.1429" y="39.7197" width="101.683" height="116.892" rx="4.34543" fill="white"/>
<rect x="43.4424" y="40.0192" width="101.084" height="116.293" rx="4.04595" stroke="#1D2276" stroke-width="0.598965"/>
</g>
<circle cx="127.28" cy="59.597" r="11.0809" fill="#1D2276"/>
<path d="M126.778 59.9752L127.366 60.9176C127.301 61.0088 127 61.291 126.772 61.0901L126.269 60.2567C125.702 59.3155 126.04 58.1078 127.023 57.5645C127.967 57.0426 129.168 57.3203 129.764 58.1769C129.571 58.2316 129.394 58.3251 129.245 58.4481C128.809 57.869 127.976 57.6879 127.317 58.0521C126.614 58.4402 126.373 59.3029 126.778 59.9752ZM130.519 60.5468C130.712 60.4885 130.883 60.3842 131.018 60.2473L129.89 58.3776C129.693 58.4224 129.515 58.515 129.37 58.6416L130.519 60.5468ZM131.235 60.607L131.14 60.4489C130.998 60.5788 130.828 60.6808 130.639 60.7455L130.726 60.8885C131.131 61.5608 130.889 62.4235 130.187 62.8116C129.485 63.1996 128.584 62.9686 128.178 62.2962L127.936 61.8843C127.777 62.0183 127.608 62.1165 127.42 62.1654L127.669 62.5778C128.237 63.519 129.498 63.8425 130.481 63.2992C131.464 62.7559 131.802 61.5482 131.235 60.607ZM123.921 58.6389C123.733 58.7071 123.567 58.8206 123.439 58.9655L124.546 60.8009C124.748 60.7664 124.931 60.6831 125.083 60.5639L123.921 58.6389ZM124.312 56.6068C125.022 56.1703 125.964 56.3951 126.381 57.0868L126.621 57.4845C126.786 57.3582 126.947 57.2584 127.135 57.2095L126.903 56.8264C126.348 55.9045 125.128 55.55 124.145 56.0484C123.116 56.5705 122.749 57.8008 123.316 58.7607C123.453 58.6233 123.619 58.5136 123.805 58.4409C123.466 57.7985 123.673 56.9998 124.312 56.6068ZM128.291 59.1263L127.859 58.4111C127.799 58.3118 127.647 58.2724 127.603 58.2753C127.44 58.2868 127.36 58.3616 127.218 58.4749L127.77 59.39C128.165 60.0437 127.967 60.8878 127.304 61.2955C126.594 61.732 125.651 61.5072 125.234 60.8155L125.201 60.7606C125.046 60.8757 124.866 60.9604 124.67 61.0059L124.712 61.0759C125.268 61.9976 126.488 62.3521 127.47 61.8539C128.505 61.3291 128.871 60.0885 128.291 59.1263ZM130.164 58.347C130.07 58.347 129.978 58.3575 129.89 58.3776C129.693 58.4224 129.515 58.515 129.37 58.6416C129.135 58.8477 128.987 59.1438 128.987 59.4731C128.987 60.095 129.514 60.5993 130.164 60.5993C130.288 60.5993 130.407 60.5808 130.519 60.5468C130.712 60.4885 130.883 60.3842 131.018 60.2473C131.218 60.0457 131.34 59.7731 131.34 59.4731C131.34 58.8513 130.813 58.347 130.164 58.347ZM130.164 58.347C130.07 58.347 129.978 58.3575 129.89 58.3776C129.693 58.4224 129.515 58.515 129.37 58.6416C129.135 58.8477 128.987 59.1438 128.987 59.4731C128.987 60.095 129.514 60.5993 130.164 60.5993C130.288 60.5993 130.407 60.5808 130.519 60.5468C130.712 60.4885 130.883 60.3842 131.018 60.2473C131.218 60.0457 131.34 59.7731 131.34 59.4731C131.34 58.8513 130.813 58.347 130.164 58.347ZM124.338 58.5661C124.191 58.5661 124.051 58.5918 123.921 58.6389C123.733 58.7071 123.567 58.8206 123.439 58.9655C123.266 59.1616 123.161 59.4152 123.161 59.6923C123.161 60.3142 123.688 60.8185 124.338 60.8185C124.409 60.8185 124.479 60.8124 124.546 60.8009C124.748 60.7664 124.931 60.6831 125.083 60.5639C125.346 60.3574 125.514 60.0437 125.514 59.6923C125.514 59.0704 124.988 58.5661 124.338 58.5661ZM124.338 58.5661C124.191 58.5661 124.051 58.5918 123.921 58.6389C123.733 58.7071 123.567 58.8206 123.439 58.9655C123.266 59.1616 123.161 59.4152 123.161 59.6923C123.161 60.3142 123.688 60.8185 124.338 60.8185C124.409 60.8185 124.479 60.8124 124.546 60.8009C124.748 60.7664 124.931 60.6831 125.083 60.5639C125.346 60.3574 125.514 60.0437 125.514 59.6923C125.514 59.0704 124.988 58.5661 124.338 58.5661Z" fill="white"/>
<rect opacity="0.5" x="50.3131" y="74.8706" width="47.9172" height="5.98965" rx="1.7969" fill="#1D2276"/>
<rect opacity="0.5" x="50.3131" y="82.6572" width="89.2458" height="4.79172" rx="1.7969" fill="#1D2276"/>
<rect opacity="0.5" x="50.3131" y="89.2456" width="89.2458" height="39.5317" rx="1.7969" fill="#1D2276"/>
<g clip-path="url(#clip0_2890_2957)">
<path d="M86.9224 129.904C88.0833 129.036 88.0838 127.295 86.9235 126.426L37.0175 89.0336C35.585 87.9603 33.542 88.9824 33.542 90.7724L33.542 165.507C33.542 167.296 35.5837 168.318 37.0164 167.246L86.9224 129.904Z" fill="#1D2276"/>
<path d="M102.35 129.904C101.19 129.036 101.189 127.295 102.349 126.426L152.255 89.0336C153.688 87.9604 155.731 88.9825 155.731 90.7724L155.731 165.507C155.731 167.296 153.689 168.318 152.256 167.246L102.35 129.904Z" fill="#1D2276"/>
<path d="M93.4999 122.486C93.8087 122.25 94.2362 122.248 94.5472 122.481L155.234 167.847C155.904 168.348 155.55 169.412 154.714 169.412H34.5181C33.6863 169.412 33.3297 168.356 33.9912 167.852L93.4999 122.486Z" fill="#3336AB"/>
</g>
<circle cx="22.2818" cy="195.982" r="22.2818" fill="#F64040"/>
<path d="M28.8326 192.789C29.3763 192.246 29.3763 191.363 28.8326 190.819C28.2889 190.275 27.4058 190.275 26.8621 190.819L22.2817 195.404L17.6969 190.823C17.1532 190.28 16.2701 190.28 15.7264 190.823C15.1827 191.367 15.1827 192.25 15.7264 192.794L20.3112 197.374L15.7308 201.959C15.187 202.503 15.187 203.386 15.7308 203.929C16.2745 204.473 17.1575 204.473 17.7013 203.929L22.2817 199.345L26.8664 203.925C27.4102 204.469 28.2932 204.469 28.8369 203.925C29.3807 203.381 29.3807 202.498 28.8369 201.955L24.2522 197.374L28.8326 192.789Z" fill="white"/>
<circle cx="54.312" cy="198.767" r="2.78523" fill="#F64040"/>
<circle cx="65.4527" cy="198.767" r="2.78523" fill="#F57070"/>
<circle cx="76.5937" cy="198.767" r="2.78523" fill="#F99696"/>
<circle cx="87.7347" cy="198.767" r="2.78523" fill="#FFB9B9"/>
<circle cx="165.434" cy="195.982" r="22.2818" fill="#3E8F72"/>
<path d="M174.774 189.426C175.318 189.97 175.318 190.854 174.774 191.398L163.634 202.537C163.09 203.081 162.207 203.081 161.663 202.537L156.093 196.967C155.549 196.423 155.549 195.54 156.093 194.996C156.637 194.452 157.521 194.452 158.065 194.996L162.651 199.578L172.807 189.426C173.351 188.883 174.235 188.883 174.778 189.426H174.774Z" fill="white"/>
<circle cx="101.373" cy="198.767" r="2.78523" fill="#9FE2CE"/>
<circle cx="112.514" cy="198.767" r="2.78523" fill="#6ADFB5"/>
<circle cx="123.655" cy="198.767" r="2.78523" fill="#4CBF96"/>
<circle cx="134.796" cy="198.767" r="2.78523" fill="#3E8F72"/>
<path d="M75.4696 40.1306C75.4696 38.4766 76.8104 37.1357 78.4644 37.1357H107.215C108.869 37.1357 110.21 38.4766 110.21 40.1306V43.7244H75.4696V40.1306Z" fill="#1D2276"/>
<circle cx="92.8397" cy="33.5417" r="4.79172" fill="#1D2276"/>
<circle cx="92.8393" cy="33.5422" r="2.99482" fill="white"/>
<defs>
<filter id="filter0_d_2890_2957" x="38.3522" y="25.5861" width="117.266" height="130.803" filterUnits="userSpaceOnUse" color-interpolation-filters="sRGB">
<feFlood flood-opacity="0" result="BackgroundImageFix"/>
<feColorMatrix in="SourceAlpha" type="matrix" values="0 0 0 0 0 0 0 0 0 0 0 0 0 0 0 0 0 0 127 0" result="hardAlpha"/>
<feOffset/>
<feGaussianBlur stdDeviation="1.19793"/>
<feComposite in2="hardAlpha" operator="out"/>
<feColorMatrix type="matrix" values="0 0 0 0 0 0 0 0 0 0 0 0 0 0 0 0 0 0 0.25 0"/>
<feBlend mode="normal" in2="BackgroundImageFix" result="effect1_dropShadow_2890_2957"/>
<feBlend mode="normal" in="SourceGraphic" in2="effect1_dropShadow_2890_2957" result="shape"/>
</filter>
<filter id="filter1_d_2890_2957" x="40.7471" y="37.3239" width="106.475" height="121.684" filterUnits="userSpaceOnUse" color-interpolation-filters="sRGB">
<feFlood flood-opacity="0" result="BackgroundImageFix"/>
<feColorMatrix in="SourceAlpha" type="matrix" values="0 0 0 0 0 0 0 0 0 0 0 0 0 0 0 0 0 0 127 0" result="hardAlpha"/>
<feOffset/>
<feGaussianBlur stdDeviation="1.19793"/>
<feComposite in2="hardAlpha" operator="out"/>
<feColorMatrix type="matrix" values="0 0 0 0 0 0 0 0 0 0 0 0 0 0 0 0 0 0 0.25 0"/>
<feBlend mode="normal" in2="BackgroundImageFix" result="effect1_dropShadow_2890_2957"/>
<feBlend mode="normal" in="SourceGraphic" in2="effect1_dropShadow_2890_2957" result="shape"/>
</filter>
<clipPath id="clip0_2890_2957">
<path d="M33.542 86.4858H155.731V164.199C155.731 166.599 153.785 168.544 151.385 168.544H37.8874C35.4875 168.544 33.542 166.599 33.542 164.199V86.4858Z" fill="white"/>
</clipPath>
</defs>
</svg>
